<svg width="24" height="24" viewBox="0 0 24 24" fill="none" xmlns="http://www.w3.org/2000/svg">
  <path d="M11.9436 7.04563C12.1262 6.98477 12.3235 6.98477 12.5061 7.04563L17.8407 8.82395C18.2037 8.94498 18.4486 9.28468 18.4485 9.66728C18.4485 10.0499 18.2036 10.3895 17.8405 10.5105L12.5059 12.2877C12.3235 12.3485 12.1262 12.3485 11.9438 12.2877L6.60918 10.5105C6.24611 10.3895 6.00119 10.0499 6.00116 9.66728C6.00112 9.28468 6.24598 8.94498 6.60902 8.82395L11.9436 7.04563Z" fill="currentColor"/>
  <path d="M7.20674 13.2736C6.68268 13.0989 6.11622 13.3821 5.94153 13.9062C5.76684 14.4302 6.05007 14.9967 6.57414 15.1714L11.9087 16.9496C12.114 17.018 12.336 17.018 12.5413 16.9496L17.8759 15.1714C18.4 14.9967 18.6832 14.4302 18.5085 13.9062C18.3338 13.3821 17.7674 13.0989 17.2433 13.2736L12.225 14.9463L7.20674 13.2736Z" fill="currentColor"/>
  <path fill-rule="evenodd" clip-rule="evenodd" d="M11.6491 1.06354C11.8754 0.97882 12.1246 0.97882 12.3509 1.06354L22.3506 4.80836C22.7412 4.95463 23 5.32784 23 5.74482V18.2552C23 18.6722 22.7412 19.0454 22.3506 19.1916L12.3509 22.9365C12.1246 23.0212 11.8754 23.0212 11.6491 22.9365L1.64938 19.1916C1.2588 19.0454 1 18.6722 1 18.2552V5.74482C1 5.32784 1.2588 4.95463 1.64938 4.80836L11.6491 1.06354ZM3.00047 6.43809V17.5619L12 20.9321L20.9995 17.5619V6.43809L12 3.06785L3.00047 6.43809Z" fill="currentColor"/>
</svg>
